<svg width="114" height="114" viewBox="0 0 114 114" fill="none" xmlns="http://www.w3.org/2000/svg">
<g clip-path="url(#clip0_1006_162)">
<path fill-rule="evenodd" clip-rule="evenodd" d="M114 57C114 88.4802 88.4802 114 57 114C25.5198 114 0 88.4802 0 57C0 25.5198 25.5198 0 57 0C70.0806 0 82.132 4.40609 91.7512 11.8151C90.7012 13.409 89.8488 15.6702 89.8488 17.7256C89.8488 23.2922 94.3341 27.8049 99.867 27.8049C101.608 27.8049 103.636 27.131 105.063 26.3448C110.721 35.1966 114 45.7154 114 57ZM62.556 104.447C67.3575 103.603 72.178 100.747 77.0175 95.878L95.766 77.0152C101.482 71.2644 104.359 65.5327 104.397 59.8202C104.397 54.0694 101.52 48.2993 95.766 42.5101C90.05 36.7593 84.334 33.8839 78.618 33.8839C72.902 33.8839 67.186 36.7593 61.47 42.5101L43.0645 61.0279C40.2827 63.8266 37.9392 65.226 36.0338 65.226C34.1666 65.1877 31.8612 63.7883 29.1175 61.0279C26.1452 58.0374 24.659 55.6604 24.659 53.8968C24.659 52.1332 26.1071 49.7946 29.0032 46.8808L46.8371 28.9382C48.6281 27.1362 50.1333 25.9285 51.3527 25.3151C52.6102 24.6634 53.9249 24.5675 55.2967 25.0276C57.1258 26.0244 58.8025 26.5611 60.3268 26.6378C61.813 26.6761 63.2991 25.9477 64.7853 24.4525C66.3858 22.8422 67.2051 21.1362 67.2432 19.3342C67.2813 17.5323 66.3477 15.9796 64.4423 14.676C55.2586 8.7335 46.1892 10.2671 37.2342 19.2767L19.4003 37.2194C13.7986 42.8552 11.0168 48.4527 11.0549 54.0118C11.093 59.4943 13.9129 65.0535 19.5146 70.6893C25.002 76.2101 30.5274 78.9705 36.091 78.9705C41.6546 78.9705 47.18 76.2101 52.6674 70.6893L71.0729 52.1716C74.0452 49.1811 76.5412 47.6667 78.5608 47.6284C80.5805 47.5901 83.1146 49.1045 86.1631 52.1716C89.2497 55.277 90.774 57.8457 90.7359 59.8777C90.6597 61.8713 89.1354 64.3634 86.1631 67.3538L67.4146 86.2166C65.3188 88.3252 63.5278 89.7438 62.0416 90.4722C60.5936 91.1623 59.0693 91.1623 57.4688 90.4722C55.4492 89.3604 53.6962 88.7853 52.2101 88.747C50.7239 88.632 49.1997 89.3604 47.6373 90.9323C46.0368 92.5425 45.2366 94.2678 45.2366 96.1081C45.2747 97.91 46.2274 99.4819 48.0946 100.824C52.896 104.044 57.7165 105.252 62.556 104.447Z" fill="#48B820"/>
</g>
<defs>
<clipPath id="clip0_1006_162">
<rect width="114" height="114" fill="white"/>
</clipPath>
</defs>
</svg>
