<svg width="120" height="120" viewBox="0 0 120 120" fill="none" xmlns="http://www.w3.org/2000/svg">
<g clip-path="url(#clip0_1006_162)">
<path fill-rule="evenodd" clip-rule="evenodd" d="M120 60C120 93.1371 93.1371 120 60 120C26.8629 120 0 93.1371 0 60C0 26.8629 26.8629 0 60 0C73.769 0 86.4548 4.63799 96.5802 12.4369C95.475 14.1147 94.5777 16.495 94.5777 18.6585C94.5777 24.5181 99.299 29.2683 105.123 29.2683C106.956 29.2683 109.091 28.559 110.593 27.7314C116.548 37.0491 120 48.1214 120 60ZM65.8485 109.944C70.9026 109.056 75.9768 106.05 81.0711 100.924L100.806 81.0687C106.823 75.0152 109.852 68.9818 109.892 62.9686C109.892 56.9151 106.863 50.8414 100.806 44.7475C94.7895 38.694 88.7726 35.6672 82.7558 35.6672C76.7389 35.6672 70.7221 38.694 64.7053 44.7475L45.3311 64.2399C42.4029 67.1859 39.936 68.659 37.9303 68.659C35.9648 68.6186 33.5381 67.1456 30.65 64.2399C27.5212 61.092 25.9568 58.5899 25.9568 56.7335C25.9568 54.8771 27.4811 52.4153 30.5296 49.3482L49.3022 30.4612C51.1874 28.5644 52.7719 27.2932 54.0555 26.6475C55.3792 25.9614 56.763 25.8605 58.2071 26.3448C60.1325 27.3941 61.8974 27.9591 63.5019 28.0398C65.0663 28.0802 66.6307 27.3134 68.195 25.7395C69.8798 24.0445 70.7422 22.2486 70.7823 20.3518C70.8224 18.4551 69.8396 16.8206 67.834 15.4485C58.167 9.19316 48.6203 10.8074 39.1939 20.2913L20.4214 39.1783C14.5249 45.1107 11.5967 51.0028 11.6368 56.8546C11.6769 62.6256 14.6452 68.4774 20.5417 74.4098C26.3179 80.2212 32.1341 83.1269 37.9905 83.1269C43.8469 83.1269 49.6632 80.2212 55.4393 74.4098L74.8136 54.9175C77.9423 51.7696 80.5697 50.1755 82.6956 50.1352C84.8216 50.0948 87.489 51.6889 90.698 54.9175C93.9471 58.1864 95.5516 60.8903 95.5115 63.0292C95.4313 65.1277 93.8268 67.7509 90.698 70.8988L70.9628 90.7543C68.7566 92.9739 66.8713 94.4671 65.307 95.2339C63.7827 95.9603 62.1782 95.9603 60.4935 95.2339C58.3675 94.0636 56.5224 93.4582 54.958 93.4179C53.3936 93.2968 51.7891 94.0636 50.1445 95.7182C48.4598 97.4132 47.6175 99.2292 47.6175 101.166C47.6576 103.063 48.6604 104.718 50.6259 106.13C55.68 109.52 60.7542 110.791 65.8485 109.944Z" fill="#48B820"/>
</g>
<defs>
<clipPath id="clip0_1006_162">
<rect width="120" height="120" fill="white"/>
</clipPath>
</defs>
</svg>
