<svg width="144" height="144" viewBox="0 0 144 144" fill="none" xmlns="http://www.w3.org/2000/svg">
<g clip-path="url(#clip0_1006_162)">
<path fill-rule="evenodd" clip-rule="evenodd" d="M144 72C144 111.765 111.765 144 72 144C32.2355 144 0 111.765 0 72C0 32.2355 32.2355 0 72 0C88.5228 0 103.746 5.56558 115.896 14.9243C114.57 16.9376 113.493 19.794 113.493 22.3902C113.493 29.4218 119.159 35.122 126.148 35.122C128.347 35.122 130.909 34.2708 132.711 33.2776C139.858 44.4589 144 57.7457 144 72ZM79.0182 131.933C85.0831 130.867 91.1722 127.259 97.2853 121.109L120.968 97.2824C128.188 90.0182 131.822 82.7782 131.87 75.5624C131.87 68.2981 128.236 61.0097 120.968 53.697C113.747 46.4328 106.527 42.8007 99.3069 42.8007C92.0867 42.8007 84.8665 46.4328 77.6463 53.697L54.3973 77.0879C50.8834 80.6231 47.9232 82.3907 45.5164 82.3907C43.1578 82.3423 40.2457 80.5747 36.78 77.0878C33.0255 73.3105 31.1482 70.3079 31.1482 68.0802C31.1482 65.8525 32.9773 62.8984 36.6356 59.2179L59.1626 36.5535C61.4249 34.2773 63.3263 32.7518 64.8666 31.977C66.455 31.1537 68.1157 31.0326 69.8485 31.6138C72.159 32.8729 74.2769 33.5509 76.2023 33.6478C78.0795 33.6962 79.9568 32.7761 81.834 30.8874C83.8557 28.8534 84.8906 26.6983 84.9387 24.4222C84.9869 22.1461 83.8076 20.1847 81.4008 18.5382C69.8004 11.0318 58.3443 12.9689 47.0327 24.3495L24.5056 47.0139C17.4298 54.1329 13.916 61.2034 13.9641 68.2255C14.0123 75.1507 17.5742 82.1728 24.65 89.2918C31.5814 96.2654 38.561 99.7522 45.5886 99.7522C52.6163 99.7522 59.5958 96.2654 66.5272 89.2918L89.7763 65.9009C93.5308 62.1235 96.6836 60.2106 99.2347 60.1622C101.786 60.1138 104.987 62.0267 108.838 65.9009C112.737 69.8236 114.662 73.0683 114.614 75.635C114.518 78.1533 112.592 81.3011 108.838 85.0785L85.1553 108.905C82.5079 111.569 80.2456 113.361 78.3683 114.281C76.5392 115.152 74.6138 115.152 72.5922 114.281C70.041 112.876 67.8268 112.15 65.9496 112.101C64.0723 111.956 62.147 112.876 60.1734 114.862C58.1518 116.896 57.1409 119.075 57.1409 121.4C57.1891 123.676 58.3924 125.661 60.751 127.356C66.816 131.424 72.9051 132.95 79.0182 131.933Z" fill="#48B820"/>
</g>
<defs>
<clipPath id="clip0_1006_162">
<rect width="144" height="144" fill="white"/>
</clipPath>
</defs>
</svg>
