<svg width="152" height="152" viewBox="0 0 152 152" fill="none" xmlns="http://www.w3.org/2000/svg">
<g clip-path="url(#clip0_1006_162)">
<path fill-rule="evenodd" clip-rule="evenodd" d="M152 76C152 117.974 117.974 152 76 152C34.0264 152 0 117.974 0 76C0 34.0264 34.0264 0 76 0C93.4407 0 109.509 5.87478 122.335 15.7534C120.935 17.8786 119.798 20.8936 119.798 23.6341C119.798 31.0563 125.779 37.0732 133.156 37.0732C135.478 37.0732 138.182 36.1747 140.084 35.1264C147.628 46.9289 152 60.9538 152 76ZM83.4081 139.262C89.81 138.138 96.2373 134.329 102.69 127.837L127.688 102.687C135.309 95.0192 139.145 87.3769 139.196 79.7603C139.196 72.0925 135.36 64.3991 127.688 56.6802C120.067 49.0124 112.445 45.1785 104.824 45.1785C97.2027 45.1785 89.5813 49.0124 81.96 56.6802L57.4193 81.3705C53.7103 85.1022 50.5856 86.968 48.0451 86.968C45.5555 86.9169 42.4815 85.0511 38.8233 81.3705C34.8602 77.3833 32.8787 74.2139 32.8787 71.8624C32.8787 69.511 34.8094 66.3928 38.6709 62.5077L62.4494 38.5842C64.8374 36.1816 66.8444 34.5714 68.4703 33.7535C70.147 32.8845 71.8999 32.7567 73.729 33.3701C76.1678 34.6992 78.4034 35.4148 80.4357 35.5171C82.4173 35.5682 84.3988 34.5969 86.3804 32.6033C88.5144 30.4563 89.6067 28.1816 89.6575 25.779C89.7084 23.3764 88.4635 21.3061 85.9231 19.5681C73.6782 11.6447 61.5857 13.6894 49.6456 25.7023L25.867 49.6258C18.3981 57.1403 14.6891 64.6036 14.7399 72.0158C14.7907 79.3258 18.5506 86.738 26.0195 94.2524C33.3359 101.613 40.7032 105.294 48.1213 105.294C55.5394 105.294 62.9067 101.613 70.2232 94.2524L94.7638 69.5621C98.7269 65.5748 102.055 63.5557 104.748 63.5045C107.441 63.4534 110.819 65.4726 114.884 69.5621C119 73.7027 121.032 77.1277 120.981 79.837C120.88 82.4951 118.847 85.8178 114.884 89.8051L89.8862 114.955C87.0917 117.767 84.7037 119.658 82.7221 120.63C80.7914 121.55 78.759 121.55 76.6251 120.63C73.9322 119.147 71.595 118.38 69.6134 118.329C67.6319 118.176 65.5996 119.147 63.5164 121.243C61.3824 123.39 60.3154 125.69 60.3154 128.144C60.3662 130.547 61.6365 132.643 64.1261 134.432C70.528 138.726 76.9553 140.336 83.4081 139.262Z" fill="#48B820"/>
</g>
<defs>
<clipPath id="clip0_1006_162">
<rect width="152" height="152" fill="white"/>
</clipPath>
</defs>
</svg>
