<svg width="180" height="180" viewBox="0 0 180 180" fill="none" xmlns="http://www.w3.org/2000/svg">
<g clip-path="url(#clip0_1006_162)">
<path fill-rule="evenodd" clip-rule="evenodd" d="M180 90C180 139.706 139.706 180 90 180C40.2944 180 0 139.706 0 90C0 40.2944 40.2944 0 90 0C110.654 0 129.682 6.95698 144.87 18.6554C143.212 21.172 141.867 24.7425 141.867 27.9878C141.867 36.7772 148.949 43.9024 157.685 43.9024C160.434 43.9024 163.637 42.8385 165.889 41.597C174.822 55.5737 180 72.1822 180 90ZM98.7727 164.916C106.354 163.584 113.965 159.074 121.607 151.386L151.209 121.603C160.235 112.523 164.777 103.473 164.838 94.453C164.838 85.3727 160.295 76.2621 151.209 67.1213C142.184 58.041 133.159 53.5009 124.134 53.5009C115.108 53.5009 106.083 58.041 97.0579 67.1213L67.9966 96.3598C63.6043 100.779 59.9039 102.988 56.8955 102.988C53.9473 102.928 50.3071 100.718 45.975 96.3598C41.2818 91.6381 38.9353 87.8849 38.9353 85.1003C38.9353 82.3156 41.2217 78.623 45.7945 74.0223L73.9533 45.6918C76.7812 42.8467 79.1578 40.9398 81.0832 39.9712C83.0688 38.9421 85.1446 38.7908 87.3106 39.5172C90.1987 41.0911 92.8461 41.9386 95.2529 42.0597C97.5994 42.1202 99.946 40.9701 102.293 38.6092C104.82 36.0667 106.113 33.3729 106.173 30.5277C106.234 27.6826 104.759 25.2309 101.751 23.1727C87.2505 13.7897 72.9304 16.2111 58.7908 30.4369L30.632 58.7674C21.7873 67.6661 17.395 76.5042 17.4552 85.2819C17.5153 93.9384 21.9678 102.716 30.8125 111.615C39.4768 120.332 48.2012 124.69 56.9858 124.69C65.7704 124.69 74.4948 120.332 83.159 111.615L112.22 82.3762C116.913 77.6544 120.854 75.2633 124.043 75.2027C127.232 75.1422 131.234 77.5334 136.047 82.3762C140.921 87.2795 143.327 91.3354 143.267 94.5438C143.147 97.6916 140.74 101.626 136.047 106.348L106.444 136.131C103.135 139.461 100.307 141.701 97.9604 142.851C95.674 143.941 93.2673 143.941 90.7402 142.851C87.5513 141.095 84.7835 140.187 82.437 140.127C80.0904 139.945 77.6837 141.095 75.2168 143.577C72.6897 146.12 71.4262 148.844 71.4262 151.75C71.4863 154.595 72.9906 157.077 75.9388 159.195C83.52 164.28 91.1313 166.187 98.7727 164.916Z" fill="#48B820"/>
</g>
<defs>
<clipPath id="clip0_1006_162">
<rect width="180" height="180" fill="white"/>
</clipPath>
</defs>
</svg>
