<svg width="192" height="192" viewBox="0 0 192 192" fill="none" xmlns="http://www.w3.org/2000/svg">
<g clip-path="url(#clip0_1006_162)">
<path fill-rule="evenodd" clip-rule="evenodd" d="M192 96C192 149.019 149.019 192 96 192C42.9807 192 0 149.019 0 96C0 42.9807 42.9807 0 96 0C118.03 0 138.328 7.42078 154.528 19.8991C152.76 22.5835 151.324 26.392 151.324 29.8537C151.324 39.229 158.878 46.8293 168.197 46.8293C171.13 46.8293 174.546 45.6943 176.949 44.3702C186.477 59.2786 192 76.9943 192 96ZM105.358 175.91C113.444 174.49 121.563 169.679 129.714 161.479L161.29 129.71C170.917 120.024 175.763 110.371 175.827 100.75C175.827 91.0642 170.981 81.3462 161.29 71.596C151.663 61.9104 142.036 57.0676 132.409 57.0676C122.782 57.0676 113.155 61.9104 103.528 71.596L72.5297 102.784C67.8446 107.497 63.8975 109.854 60.6886 109.854C57.5438 109.79 53.6609 107.433 49.04 102.784C44.0339 97.7473 41.5309 93.7439 41.5309 90.7736C41.5309 87.8033 43.9698 83.8645 48.8474 78.9571L78.8835 48.7379C81.8999 45.7031 84.435 43.6691 86.4887 42.636C88.6067 41.5383 90.8209 41.3769 93.1313 42.1517C96.212 43.8305 99.0359 44.7345 101.603 44.8637C104.106 44.9282 106.609 43.7014 109.112 41.1831C111.808 38.4712 113.187 35.5977 113.252 32.5629C113.316 29.5281 111.743 26.913 108.534 24.7176C93.0672 14.7091 77.7924 17.2919 62.7102 32.4661L32.6742 62.6853C23.2398 72.1772 18.5547 81.6045 18.6188 90.9673C18.683 100.201 23.4323 109.564 32.8667 119.056C42.1086 128.354 51.4146 133.003 60.7848 133.003C70.155 133.003 79.4611 128.354 88.7029 119.056L119.702 87.8679C124.708 82.8314 128.911 80.2808 132.313 80.2163C135.714 80.1517 139.982 82.7022 145.117 87.8679C150.315 93.0982 152.883 97.4244 152.818 100.847C152.69 104.204 150.123 108.401 145.117 113.438L113.54 145.207C110.011 148.758 106.994 151.147 104.491 152.374C102.052 153.537 99.4851 153.537 96.7896 152.374C93.388 150.502 90.4358 149.533 87.9328 149.469C85.4298 149.275 82.8626 150.502 80.2312 153.149C77.5357 155.861 76.1879 158.767 76.1879 161.866C76.2521 164.901 77.8566 167.548 81.0014 169.808C89.088 175.232 97.2067 177.266 105.358 175.91Z" fill="#48B820"/>
</g>
<defs>
<clipPath id="clip0_1006_162">
<rect width="192" height="192" fill="white"/>
</clipPath>
</defs>
</svg>
