<svg width="256" height="256" viewBox="0 0 256 256" fill="none" xmlns="http://www.w3.org/2000/svg">
<g clip-path="url(#clip0_1006_162)">
<path fill-rule="evenodd" clip-rule="evenodd" d="M256 128C256 198.692 198.692 256 128 256C57.3075 256 0 198.692 0 128C0 57.3075 57.3075 0 128 0C157.374 0 184.437 9.89437 206.038 26.5321C203.68 30.1114 201.766 35.1893 201.766 39.8049C201.766 52.3054 211.838 62.439 224.263 62.439C228.173 62.439 232.728 60.9258 235.931 59.1602C248.636 79.0381 256 102.659 256 128ZM140.477 234.547C151.259 232.653 162.084 226.239 172.952 215.305L215.053 172.947C227.889 160.032 234.35 147.161 234.436 134.333C234.436 121.419 227.975 108.462 215.053 95.4614C202.218 82.5472 189.382 76.0901 176.546 76.0901C163.71 76.0901 150.874 82.5472 138.038 95.4614L96.7063 137.045C90.4594 143.33 85.1967 146.472 80.9181 146.472C76.725 146.386 71.5478 143.244 65.3866 137.045C58.7119 130.33 55.3746 124.992 55.3746 121.031C55.3746 117.071 58.6264 111.819 65.1299 105.276L105.178 64.9839C109.2 60.9375 112.58 58.2255 115.318 56.848C118.142 55.3844 121.094 55.1691 124.175 56.2023C128.283 58.4407 132.048 59.646 135.471 59.8182C138.808 59.9043 142.145 58.2685 145.483 54.9109C149.077 51.2949 150.917 47.4637 151.002 43.4172C151.088 39.3708 148.991 35.8839 144.713 32.9567C124.09 19.6121 103.723 23.0559 83.6136 43.2881L43.5655 83.5803C30.9864 96.2363 24.7395 108.806 24.8251 121.29C24.9107 133.601 31.2431 146.085 43.8223 158.741C56.1447 171.139 68.5528 177.337 81.0464 177.337C93.5401 177.337 105.948 171.139 118.271 158.741L159.602 117.157C166.277 110.442 171.882 107.041 176.417 106.955C180.953 106.869 186.643 110.27 193.489 117.157C200.42 124.131 203.843 129.899 203.758 134.462C203.587 138.939 200.164 144.535 193.489 151.251L151.387 193.609C146.681 198.344 142.659 201.53 139.322 203.166C136.07 204.715 132.647 204.715 129.053 203.166C124.517 200.669 120.581 199.378 117.244 199.291C113.906 199.033 110.483 200.669 106.975 204.199C103.381 207.815 101.584 211.689 101.584 215.822C101.669 219.868 103.809 223.398 108.002 226.411C118.784 233.643 129.609 236.355 140.477 234.547Z" fill="#48B820"/>
</g>
<defs>
<clipPath id="clip0_1006_162">
<rect width="256" height="256" fill="white"/>
</clipPath>
</defs>
</svg>
