<svg width="384" height="384" viewBox="0 0 384 384" fill="none" xmlns="http://www.w3.org/2000/svg">
<g clip-path="url(#clip0_1006_162)">
<path fill-rule="evenodd" clip-rule="evenodd" d="M384 192C384 298.039 298.039 384 192 384C85.9613 384 0 298.039 0 192C0 85.9613 85.9613 0 192 0C236.061 0 276.655 14.8416 309.057 39.7981C305.52 45.167 302.649 52.7839 302.649 59.7073C302.649 78.4581 317.757 93.6585 336.394 93.6585C342.26 93.6585 349.091 91.3887 353.897 88.7404C372.954 118.557 384 153.989 384 192ZM210.715 351.821C226.888 348.98 243.126 339.359 259.427 322.958L322.58 259.42C341.834 240.048 351.525 220.742 351.653 201.5C351.653 182.128 341.962 162.692 322.58 143.192C303.326 123.821 284.072 114.135 264.818 114.135C245.565 114.135 226.311 123.821 207.057 143.192L145.059 205.568C135.689 214.995 127.795 219.709 121.377 219.709C115.088 219.579 107.322 214.866 98.0799 205.568C88.0679 195.495 83.0619 187.488 83.0619 181.547C83.0619 175.607 87.9395 167.729 97.6948 157.914L157.767 97.4759C163.8 91.4062 168.87 87.3382 172.977 85.272C177.213 83.0765 181.642 82.7537 186.263 84.3034C192.424 87.6611 198.072 89.4691 203.206 89.7273C208.212 89.8565 213.218 87.4028 218.224 82.3663C223.615 76.9423 226.375 71.1955 226.503 65.1258C226.632 59.0562 223.487 53.8259 217.069 49.4351C186.134 29.4181 155.585 34.5838 125.42 64.9321L65.3483 125.371C46.4795 144.354 37.1093 163.209 37.2377 181.935C37.366 200.402 46.8646 219.128 65.7334 238.111C84.2171 256.708 102.829 266.006 121.57 266.006C140.31 266.006 158.922 256.708 177.406 238.111L239.403 175.736C249.415 165.663 257.823 160.562 264.626 160.433C271.429 160.303 279.965 165.404 290.234 175.736C300.631 186.196 305.765 194.849 305.637 201.693C305.38 208.409 300.246 216.803 290.234 226.876L227.081 290.414C220.021 297.517 213.988 302.295 208.982 304.749C204.105 307.073 198.97 307.073 193.579 304.749C186.776 301.003 180.872 299.066 175.866 298.937C170.86 298.55 165.725 301.003 160.462 306.298C155.071 311.722 152.376 317.534 152.376 323.732C152.504 329.802 155.713 335.097 162.003 339.617C178.176 350.465 194.413 354.533 210.715 351.821Z" fill="#48B820"/>
</g>
<defs>
<clipPath id="clip0_1006_162">
<rect width="384" height="384" fill="white"/>
</clipPath>
</defs>
</svg>
