<svg width="48" height="48" viewBox="0 0 48 48" fill="none" xmlns="http://www.w3.org/2000/svg">
<g clip-path="url(#clip0_1006_162)">
<path fill-rule="evenodd" clip-rule="evenodd" d="M48 24C48 37.2548 37.2548 48 24 48C10.7452 48 0 37.2548 0 24C0 10.7452 10.7452 0 24 0C29.5076 0 34.5819 1.85519 38.6321 4.97476C38.19 5.64588 37.8311 6.59799 37.8311 7.46342C37.8311 9.80726 39.7196 11.7073 42.0492 11.7073C42.7825 11.7073 43.6364 11.4236 44.2371 11.0925C46.6193 14.8196 48 19.2486 48 24ZM26.3394 43.9776C28.361 43.6225 30.3907 42.4198 32.4284 40.3697L40.3225 32.4275C42.7293 30.0061 43.9406 27.5927 43.9567 25.1875C43.9567 22.766 42.7453 20.3366 40.3225 17.899C37.9158 15.4776 35.509 14.2669 33.1023 14.2669C30.6956 14.2669 28.2888 15.4776 25.8821 17.899L18.1324 25.696C16.9611 26.8744 15.9744 27.4636 15.1721 27.4636C14.3859 27.4474 13.4152 26.8582 12.26 25.6959C11.0085 24.4368 10.3827 23.436 10.3827 22.6934C10.3827 21.9508 10.9924 20.9661 12.2119 19.7393L19.7209 12.1845C20.475 11.4258 21.1088 10.9173 21.6222 10.659C22.1517 10.3846 22.7052 10.3442 23.2828 10.5379C24.053 10.9576 24.759 11.1836 25.4008 11.2159C26.0265 11.2321 26.6523 10.9254 27.278 10.2958C27.9519 9.61779 28.2969 8.89944 28.3129 8.14073C28.329 7.38202 27.9359 6.72824 27.1336 6.17939C23.2668 3.67726 19.4481 4.32297 15.6776 8.11651L8.16854 15.6713C5.80994 18.0443 4.63866 20.4011 4.65471 22.7418C4.67075 25.0502 5.85807 27.3909 8.21668 29.7639C10.5271 32.0885 12.8537 33.2507 15.1962 33.2507C17.5388 33.2507 19.8653 32.0885 22.1757 29.7639L29.9254 21.967C31.1769 20.7078 32.2279 20.0702 33.0782 20.0541C33.9286 20.0379 34.9956 20.6756 36.2792 21.967C37.5788 23.2745 38.2206 24.3561 38.2046 25.2117C38.1725 26.0511 37.5307 27.1004 36.2792 28.3595L28.3851 36.3017C27.5026 37.1896 26.7485 37.7869 26.1228 38.0936C25.5131 38.3841 24.8713 38.3841 24.1974 38.0936C23.347 37.6254 22.6089 37.3833 21.9832 37.3671C21.3574 37.3187 20.7156 37.6254 20.0578 38.2873C19.3839 38.9653 19.047 39.6917 19.047 40.4665C19.063 41.2253 19.4641 41.8871 20.2503 42.4521C22.272 43.8081 24.3017 44.3166 26.3394 43.9776Z" fill="#48B820"/>
</g>
<defs>
<clipPath id="clip0_1006_162">
<rect width="48" height="48" fill="white"/>
</clipPath>
</defs>
</svg>
