<svg width="512" height="512" viewBox="0 0 512 512" fill="none" xmlns="http://www.w3.org/2000/svg">
<path fill-rule="evenodd" clip-rule="evenodd" d="M512 256C512 397.385 397.385 512 256 512C114.615 512 0 397.385 0 256C0 114.615 114.615 0 256 0C314.748 0 368.874 19.7887 412.075 53.0642C407.36 60.2227 403.531 70.3786 403.531 79.6098C403.531 104.611 423.676 124.878 448.525 124.878C456.346 124.878 465.455 121.852 471.863 118.32C497.272 158.076 512 205.318 512 256ZM280.953 469.094C302.518 465.306 324.168 452.478 345.903 430.61L430.107 345.893C455.779 320.065 468.7 294.322 468.871 268.666C468.871 242.838 455.95 216.923 430.107 190.923C404.435 165.094 378.763 152.18 353.091 152.18C327.419 152.18 301.748 165.094 276.076 190.923L193.413 274.09C180.919 286.66 170.393 292.945 161.836 292.945C153.45 292.773 143.096 286.488 130.773 274.09C117.424 260.659 110.749 249.984 110.749 242.063C110.749 234.142 117.253 223.639 130.26 210.552L210.356 129.968C218.4 121.875 225.16 116.451 230.637 113.696C236.284 110.769 242.189 110.338 248.35 112.405C256.565 116.881 264.096 119.292 270.941 119.636C277.616 119.809 284.291 116.537 290.965 109.822C298.154 102.59 301.833 94.9273 302.004 86.8345C302.176 78.7416 297.982 71.7679 289.425 65.9135C248.179 39.2242 207.446 46.1117 167.227 86.5762L87.1311 167.161C61.9727 192.473 49.4791 217.612 49.6502 242.58C49.8214 267.203 62.4861 292.17 87.6445 317.482C112.29 342.277 137.106 354.675 162.093 354.675C187.08 354.675 211.896 342.277 236.541 317.482L319.205 234.314C332.554 220.884 343.764 214.082 352.835 213.91C361.905 213.738 373.286 220.539 386.978 234.314C400.841 248.262 407.687 259.798 407.516 268.924C407.173 277.878 400.327 289.071 386.978 302.501L302.775 387.218C293.362 396.689 285.318 403.06 278.643 406.331C272.139 409.431 265.294 409.431 258.106 406.331C249.035 401.338 241.162 398.755 234.487 398.583C227.813 398.066 220.967 401.338 213.95 408.398C206.762 415.63 203.168 423.378 203.168 431.643C203.339 439.736 207.618 446.796 216.004 452.823C237.568 467.286 259.218 472.71 280.953 469.094Z" fill="#48B820"/>
</svg>
