<svg width="57" height="57" viewBox="0 0 57 57" fill="none" xmlns="http://www.w3.org/2000/svg">
<g clip-path="url(#clip0_1006_162)">
<path fill-rule="evenodd" clip-rule="evenodd" d="M57 28.5C57 44.2401 44.2401 57 28.5 57C12.7599 57 0 44.2401 0 28.5C0 12.7599 12.7599 0 28.5 0C35.0403 0 41.066 2.20304 45.8756 5.90753C45.3506 6.70448 44.9244 7.83511 44.9244 8.86281C44.9244 11.6461 47.167 13.9024 49.9335 13.9024C50.8042 13.9024 51.8182 13.5655 52.5316 13.1724C55.3604 17.5983 57 22.8577 57 28.5ZM31.278 52.2234C33.6787 51.8017 36.089 50.3735 38.5088 47.939L47.883 38.5076C50.741 35.6322 52.1795 32.7664 52.1986 29.9101C52.1986 27.0347 50.76 24.1497 47.883 21.2551C45.025 18.3796 42.167 16.9419 39.309 16.9419C36.451 16.9419 33.593 18.3797 30.735 21.2551L21.5323 30.5139C20.1414 31.9133 18.9696 32.613 18.0169 32.613C17.0833 32.5938 15.9306 31.8941 14.5587 30.5139C13.0726 29.0187 12.3295 27.8302 12.3295 26.9484C12.3295 26.0666 13.0535 24.8973 14.5016 23.4404L23.4185 14.4691C24.314 13.5681 25.0666 12.9643 25.6763 12.6576C26.3051 12.3317 26.9624 12.2838 27.6484 12.5138C28.5629 13.0122 29.4013 13.2806 30.1634 13.3189C30.9065 13.3381 31.6496 12.9739 32.3926 12.2262C33.1929 11.4211 33.6025 10.5681 33.6216 9.66712C33.6406 8.76615 33.1738 7.98979 32.2212 7.33802C27.6293 4.36675 23.0946 5.13353 18.6171 9.63836L9.70014 18.6097C6.8993 21.4276 5.50841 24.2263 5.52747 27.0059C5.54652 29.7472 6.95646 32.5267 9.7573 35.3447C12.501 38.1051 15.2637 39.4853 18.0455 39.4853C20.8273 39.4853 23.59 38.1051 26.3337 35.3447L35.5364 26.0858C37.0226 24.5906 38.2706 23.8334 39.2804 23.8142C40.2902 23.795 41.5573 24.5522 43.0815 26.0858C44.6249 27.6385 45.387 28.9229 45.368 29.9389C45.3298 30.9357 44.5677 32.1817 43.0815 33.6769L33.7073 43.1083C32.6594 44.1626 31.7639 44.8719 31.0208 45.2361C30.2968 45.5812 29.5346 45.5812 28.7344 45.2361C27.7246 44.6802 26.8481 44.3927 26.105 44.3735C25.362 44.316 24.5998 44.6802 23.8186 45.4662C23.0184 46.2713 22.6183 47.1339 22.6183 48.054C22.6373 48.955 23.1137 49.7409 24.0473 50.4119C26.448 52.0221 28.8583 52.6259 31.278 52.2234Z" fill="#48B820"/>
</g>
<defs>
<clipPath id="clip0_1006_162">
<rect width="57" height="57" fill="white"/>
</clipPath>
</defs>
</svg>
