<svg width="60" height="60" viewBox="0 0 60 60" fill="none" xmlns="http://www.w3.org/2000/svg">
<g clip-path="url(#clip0_1006_162)">
<path fill-rule="evenodd" clip-rule="evenodd" d="M60 30C60 46.5685 46.5685 60 30 60C13.4315 60 0 46.5685 0 30C0 13.4315 13.4315 0 30 0C36.8845 0 43.2274 2.31899 48.2901 6.21846C47.7375 7.05735 47.2888 8.24749 47.2888 9.32927C47.2888 12.2591 49.6495 14.6341 52.5616 14.6341C53.4781 14.6341 54.5455 14.2795 55.2964 13.8657C58.2741 18.5246 60 24.0607 60 30ZM32.9242 54.972C35.4513 54.5281 37.9884 53.0248 40.5355 50.4621L50.4031 40.5343C53.4116 37.5076 54.9258 34.4909 54.9459 31.4843C54.9459 28.4576 53.4316 25.4207 50.4031 22.3738C47.3947 19.347 44.3863 17.8336 41.3779 17.8336C38.3695 17.8336 35.3611 19.347 32.3526 22.3738L22.6655 32.1199C21.2014 33.593 19.968 34.3295 18.9652 34.3295C17.9824 34.3093 16.769 33.5728 15.325 32.1199C13.7606 30.546 12.9784 29.295 12.9784 28.3668C12.9784 27.4385 13.7406 26.2077 15.2648 24.6741L24.6511 15.2306C25.5937 14.2822 26.3859 13.6466 27.0277 13.3237C27.6896 12.9807 28.3815 12.9303 29.1035 13.1724C30.0662 13.697 30.9487 13.9795 31.751 14.0199C32.5331 14.0401 33.3153 13.6567 34.0975 12.8697C34.9399 12.0222 35.3711 11.1243 35.3911 10.1759C35.4112 9.22753 34.9198 8.4103 33.917 7.72423C29.0835 4.59658 24.3101 5.40372 19.5969 10.1456L10.2107 19.5891C7.26243 22.5554 5.79833 25.5014 5.81838 28.4273C5.83844 31.3128 7.32259 34.2387 10.2708 37.2049C13.1589 40.1106 16.0671 41.5634 18.9953 41.5634C21.9235 41.5634 24.8316 40.1106 27.7197 37.2049L37.4068 27.4587C38.9712 25.8848 40.2848 25.0878 41.3478 25.0676C42.4108 25.0474 43.7445 25.8445 45.349 27.4587C46.9735 29.0932 47.7758 30.4451 47.7557 31.5146C47.7156 32.5639 46.9134 33.8755 45.349 35.4494L35.4814 45.3772C34.3783 46.487 33.4357 47.2336 32.6535 47.617C31.8913 47.9802 31.0891 47.9802 30.2467 47.617C29.1838 47.0318 28.2612 46.7291 27.479 46.7089C26.6968 46.6484 25.8946 47.0318 25.0723 47.8591C24.2299 48.7066 23.8087 49.6146 23.8087 50.5832C23.8288 51.5316 24.3302 52.3589 25.3129 53.0651C27.84 54.7601 30.3771 55.3957 32.9242 54.972Z" fill="#48B820"/>
</g>
<defs>
<clipPath id="clip0_1006_162">
<rect width="60" height="60" fill="white"/>
</clipPath>
</defs>
</svg>
