<svg width="72" height="72" viewBox="0 0 72 72" fill="none" xmlns="http://www.w3.org/2000/svg">
<g clip-path="url(#clip0_1006_162)">
<path fill-rule="evenodd" clip-rule="evenodd" d="M72 36C72 55.8823 55.8823 72 36 72C16.1177 72 0 55.8823 0 36C0 16.1177 16.1177 0 36 0C44.2614 0 51.8728 2.78279 57.9481 7.46215C57.285 8.46882 56.7466 9.89698 56.7466 11.1951C56.7466 14.7109 59.5794 17.561 63.0739 17.561C64.1737 17.561 65.4546 17.1354 66.3557 16.6388C69.9289 22.2295 72 28.8729 72 36ZM39.5091 65.9664C42.5416 65.4337 45.5861 63.6297 48.6426 60.5545L60.4838 48.6412C64.0939 45.0091 65.911 41.3891 65.935 37.7812C65.935 34.1491 64.1179 30.5048 60.4838 26.8485C56.8737 23.2164 53.2636 21.4003 49.6535 21.4003C46.0434 21.4003 42.4333 23.2164 38.8232 26.8485L27.1986 38.5439C25.4417 40.3116 23.9616 41.1954 22.7582 41.1954C21.5789 41.1712 20.1228 40.2873 18.39 38.5439C16.5127 36.6552 15.5741 35.154 15.5741 34.0401C15.5741 32.9263 16.4887 31.4492 18.3178 29.6089L29.5813 18.2767C30.7125 17.1387 31.6631 16.3759 32.4333 15.9885C33.2275 15.5769 34.0578 15.5163 34.9243 15.8069C36.0795 16.4365 37.1384 16.7755 38.1011 16.8239C39.0398 16.8481 39.9784 16.388 40.917 15.4437C41.9279 14.4267 42.4453 13.3492 42.4694 12.2111C42.4934 11.073 41.9038 10.0924 40.7004 9.26908C34.9002 5.5159 29.1722 6.48446 23.5163 12.1748L12.2528 23.507C8.71491 27.0664 6.95799 30.6017 6.98206 34.1127C7.00613 37.5754 8.78711 41.0864 12.325 44.6459C15.7907 48.1327 19.2805 49.8761 22.7943 49.8761C26.3081 49.8761 29.7979 48.1327 33.2636 44.6459L44.8881 32.9505C46.7654 31.0618 48.3418 30.1053 49.6174 30.0811C50.8929 30.0569 52.4934 31.0133 54.4188 32.9505C56.3683 34.9118 57.331 36.5342 57.3069 37.8175C57.2588 39.0766 56.2961 40.6506 54.4188 42.5393L42.5777 54.4526C41.254 55.7844 40.1228 56.6803 39.1842 57.1404C38.2696 57.5762 37.3069 57.5762 36.2961 57.1404C35.0205 56.4381 33.9134 56.0749 32.9748 56.0507C32.0362 55.9781 31.0735 56.4382 30.0867 57.4309C29.0759 58.4479 28.5705 59.5375 28.5705 60.6998C28.5945 61.8379 29.1962 62.8307 30.3755 63.6782C33.408 65.7121 36.4525 66.4749 39.5091 65.9664Z" fill="#48B820"/>
</g>
<defs>
<clipPath id="clip0_1006_162">
<rect width="72" height="72" fill="white"/>
</clipPath>
</defs>
</svg>
