<svg width="76" height="76" viewBox="0 0 76 76" fill="none" xmlns="http://www.w3.org/2000/svg">
<g clip-path="url(#clip0_1006_162)">
<path fill-rule="evenodd" clip-rule="evenodd" d="M76 38C76 58.9868 58.9868 76 38 76C17.0132 76 0 58.9868 0 38C0 17.0132 17.0132 0 38 0C46.7204 0 54.7547 2.93739 61.1674 7.87671C60.4675 8.93931 59.8992 10.4468 59.8992 11.8171C59.8992 15.5282 62.8894 18.5366 66.578 18.5366C67.7389 18.5366 69.091 18.0873 70.0421 17.5632C73.8138 23.4644 76 30.4769 76 38ZM41.704 69.6312C44.905 69.0689 48.1187 67.1647 51.345 63.9187L63.844 51.3435C67.6546 47.5096 69.5727 43.6885 69.5981 39.8801C69.5981 36.0462 67.6801 32.1996 63.844 28.3401C60.0333 24.5062 56.2227 22.5893 52.412 22.5893C48.6013 22.5893 44.7907 24.5062 40.98 28.3401L28.7097 40.6853C26.8551 42.5511 25.2928 43.484 24.0226 43.484C22.7777 43.4584 21.2408 42.5255 19.4116 40.6853C17.4301 38.6916 16.4393 37.107 16.4393 35.9312C16.4393 34.7555 17.4047 33.1964 19.3354 31.2539L31.2247 19.2921C32.4187 18.0908 33.4222 17.2857 34.2351 16.8767C35.0735 16.4422 35.9499 16.3783 36.8645 16.685C38.0839 17.3496 39.2017 17.7074 40.2179 17.7585C41.2086 17.7841 42.1994 17.2985 43.1902 16.3017C44.2572 15.2282 44.8034 14.0908 44.8288 12.8895C44.8542 11.6882 44.2318 10.653 42.9615 9.78403C36.8391 5.82234 30.7928 6.84471 24.8228 12.8511L12.9335 24.8129C9.19907 28.5701 7.34455 32.3018 7.36995 36.0079C7.39536 39.6629 9.27529 43.369 13.0097 47.1262C16.668 50.8067 20.3516 52.647 24.0607 52.647C27.7697 52.647 31.4533 50.8067 35.1116 47.1262L47.3819 34.7811C49.3635 32.7874 51.0275 31.7778 52.3739 31.7523C53.7203 31.7267 55.4097 32.7363 57.4421 34.7811C59.4998 36.8514 60.516 38.5638 60.4906 39.9185C60.4398 41.2476 59.4236 42.9089 57.4421 44.9025L44.9431 57.4777C43.5459 58.8835 42.3518 59.8292 41.3611 60.3148C40.3957 60.7749 39.3795 60.7749 38.3125 60.3148C36.9661 59.5736 35.7975 59.1902 34.8067 59.1646C33.816 59.088 32.7998 59.5736 31.7582 60.6215C30.6912 61.695 30.1577 62.8452 30.1577 64.072C30.1831 65.2733 30.8182 66.3213 32.0631 67.2158C35.264 69.3628 38.4777 70.1679 41.704 69.6312Z" fill="#48B820"/>
</g>
<defs>
<clipPath id="clip0_1006_162">
<rect width="76" height="76" fill="white"/>
</clipPath>
</defs>
</svg>
