<svg width="96" height="96" viewBox="0 0 96 96" fill="none" xmlns="http://www.w3.org/2000/svg">
<g clip-path="url(#clip0_1006_162)">
<path fill-rule="evenodd" clip-rule="evenodd" d="M96 48C96 74.5097 74.5097 96 48 96C21.4903 96 0 74.5097 0 48C0 21.4903 21.4903 0 48 0C59.0152 0 69.1638 3.71039 77.2641 9.94953C76.38 11.2918 75.6621 13.196 75.6621 14.9268C75.6621 19.6145 79.4392 23.4146 84.0985 23.4146C85.565 23.4146 87.2728 22.8472 88.4743 22.1851C93.2385 29.6393 96 38.4972 96 48ZM52.6788 87.9552C56.7221 87.2449 60.7815 84.8396 64.8569 80.7394L80.645 64.8549C85.4585 60.0121 87.8813 55.1854 87.9134 50.3749C87.9134 45.5321 85.4906 40.6731 80.645 35.798C75.8316 30.9552 71.0181 28.5338 66.2046 28.5338C61.3911 28.5338 56.5777 30.9552 51.7642 35.798L36.2648 51.3919C33.9223 53.7487 31.9488 54.9272 30.3443 54.9272C28.7719 54.8949 26.8304 53.7165 24.52 51.3919C22.017 48.8736 20.7655 46.8719 20.7655 45.3868C20.7655 43.9017 21.9849 41.9323 24.4237 39.4786L39.4417 24.369C40.95 22.8516 42.2175 21.8346 43.2444 21.318C44.3033 20.7691 45.4104 20.6884 46.5657 21.0759C48.106 21.9153 49.5179 22.3673 50.8015 22.4318C52.053 22.4641 53.3045 21.8507 54.556 20.5916C55.9038 19.2356 56.5937 17.7989 56.6258 16.2815C56.6579 14.764 55.8717 13.4565 54.2672 12.3588C46.5336 7.35453 38.8962 8.64594 31.3551 16.233L16.3371 31.3426C11.6199 36.0886 9.27733 40.8023 9.30942 45.4837C9.34151 50.1005 11.7161 54.7819 16.4334 59.5278C21.0543 64.1769 25.7073 66.5015 30.3924 66.5015C35.0775 66.5015 39.7305 64.1769 44.3515 59.5278L59.8508 43.934C62.3538 41.4157 64.4557 40.1404 66.1565 40.1081C67.8572 40.0758 69.9912 41.3511 72.5584 43.934C75.1577 46.5491 76.4413 48.7122 76.4092 50.4233C76.345 52.1022 75.0614 54.2007 72.5584 56.719L56.7702 72.6034C55.0053 74.3791 53.4971 75.5737 52.2456 76.1871C51.0262 76.7683 49.7426 76.7683 48.3948 76.1871C46.694 75.2509 45.2179 74.7666 43.9664 74.7343C42.7149 74.6374 41.4313 75.2509 40.1156 76.5746C38.7678 77.9306 38.094 79.3834 38.094 80.9331C38.126 82.4505 38.9283 83.7742 40.5007 84.9042C44.544 87.6162 48.6034 88.6332 52.6788 87.9552Z" fill="#48B820"/>
</g>
<defs>
<clipPath id="clip0_1006_162">
<rect width="96" height="96" fill="white"/>
</clipPath>
</defs>
</svg>
